<mxfile host="Electron" modified="2024-11-11T09:17:45.422Z" agent="Mozilla/5.0 (Windows NT 10.0; Win64; x64) AppleWebKit/537.36 (KHTML, like Gecko) draw.io/24.1.0 Chrome/120.0.6099.109 Electron/28.1.0 Safari/537.36" etag="8hbIzVTi3AfTty1f5D4f" version="24.1.0" type="device">
  <diagram name="第 1 页" id="GIAjR0rXeWZUQFvc5wLO">
    <mxGraphModel dx="1434" dy="836" grid="1" gridSize="10" guides="1" tooltips="1" connect="1" arrows="1" fold="1" page="1" pageScale="1" pageWidth="827" pageHeight="1169" math="0" shadow="0">
      <root>
        <mxCell id="0" />
        <mxCell id="1" parent="0" />
        <mxCell id="zaIRJdftHB46xq49ESVS-1" value="&lt;font style=&quot;font-size: 24px;&quot;&gt;C++&lt;/font&gt;" style="rounded=1;whiteSpace=wrap;html=1;fillColor=#dae8fc;strokeColor=#6c8ebf;" parent="1" vertex="1">
          <mxGeometry x="120" y="320" width="150" height="60" as="geometry" />
        </mxCell>
        <mxCell id="47wJD56icOpZS0BODLg1-1" value="&lt;font style=&quot;font-size: 24px;&quot;&gt;JVM&lt;/font&gt;" style="rounded=1;whiteSpace=wrap;html=1;fillColor=#dae8fc;strokeColor=#6c8ebf;" parent="1" vertex="1">
          <mxGeometry x="430" y="320" width="150" height="60" as="geometry" />
        </mxCell>
        <mxCell id="47wJD56icOpZS0BODLg1-2" value="JAVA" style="rounded=1;whiteSpace=wrap;html=1;fillColor=#f8cecc;strokeColor=#b85450;" parent="1" vertex="1">
          <mxGeometry x="540" y="350" width="40" height="30" as="geometry" />
        </mxCell>
        <mxCell id="47wJD56icOpZS0BODLg1-3" value="" style="shape=flexArrow;endArrow=classic;startArrow=classic;html=1;rounded=0;" parent="1" edge="1">
          <mxGeometry width="100" height="100" relative="1" as="geometry">
            <mxPoint x="270" y="349.5" as="sourcePoint" />
            <mxPoint x="430" y="349.5" as="targetPoint" />
            <Array as="points" />
          </mxGeometry>
        </mxCell>
        <mxCell id="47wJD56icOpZS0BODLg1-4" value="JNI" style="rounded=1;whiteSpace=wrap;html=1;fillColor=#d5e8d4;strokeColor=#82b366;" parent="1" vertex="1">
          <mxGeometry x="330" y="310" width="40" height="30" as="geometry" />
        </mxCell>
      </root>
    </mxGraphModel>
  </diagram>
</mxfile>
